<svg width="14" height="14" viewBox="0 0 14 14" fill="none" xmlns="http://www.w3.org/2000/svg">
<path d="M9.82365 8.866L7.8638 10.8103C5.9195 9.69816 4.30962 8.08828 3.19748 6.14398L5.14178 4.18413C5.32066 3.99748 5.39843 3.74083 5.35177 3.48418L4.76848 0.622175C4.69848 0.264424 4.37962 0 4.00631 0H0.778778C0.343255 0 -0.0222729 0.365528 0.00105869 0.801051C0.133271 3.04866 0.817664 5.15628 1.89092 6.99947C3.11971 9.12264 4.88513 10.8803 7.00053 12.1091C8.84372 13.1746 10.9513 13.8667 13.1989 13.9989C13.6345 14.0223 14 13.6567 14 13.2212V9.99369C14 9.62038 13.7356 9.30152 13.3778 9.23152L10.5236 8.66379C10.3993 8.63673 10.2702 8.64105 10.148 8.67635C10.0258 8.71166 9.91436 8.77683 9.82365 8.866Z" fill="#2E3133"/>
</svg>
